<svg width="40" height="40" viewBox="0 0 40 40" fill="none" xmlns="http://www.w3.org/2000/svg">
<rect width="40" height="40" rx="20" fill="#EFF4FF"/>
<path d="M29.6 14.7999V12.0001C29.6 11.1203 28.8798 10.4 27.9999 10.4H20.7999C19.9203 10.4 19.1998 11.1203 19.1998 12.0001V14.8002L29.6 14.7999ZM21.6001 11.6C22.2625 11.6 22.8001 11.9579 22.8001 12.3999C22.8001 12.842 22.2625 13.1999 21.6001 13.1999C20.9374 13.1999 20.4001 12.842 20.4001 12.3999C20.4001 11.9579 20.9374 11.6 21.6001 11.6Z" fill="#0F70B8"/>
<path d="M20.7999 17.6H27.9999C28.8798 17.6 29.6 16.8798 29.6 15.9999H19.2001C19.2001 16.8798 19.9203 17.6 20.7999 17.6Z" fill="#0F70B8"/>
<path d="M25.9561 23.3345L25.5046 22.6563L25.1014 22.7612C22.957 23.317 20.7008 23.6 18.3954 23.6C16.0976 23.6 13.8454 23.317 11.6984 22.7609L11.2952 22.6561L10.8438 23.3343C10.5999 23.7001 10.4 24.3593 10.4 24.8V29.6H12.0001L12.8 27.9999H24.0001L24.8 29.6H26.4001V24.8C26.4001 24.3593 26.1999 23.7001 25.9561 23.3345ZM14.4001 26.4001H12.4002V25.2001H14.4001V26.4001ZM20.7999 26.4001H15.9999V25.2001H20.7999V26.4001ZM24.3999 26.4001H22.4V25.2001H24.3999V26.4001Z" fill="#0F70B8"/>
<path d="M23.733 18.8H20.7999C19.5438 18.8 18.4914 17.9633 18.1376 16.8219C16.5697 16.8421 15.0298 17.0297 13.6002 17.4001L12.6094 20H10.4V21.2L12.0001 21.6001C16.2673 22.7062 20.8438 22.6265 24.8 21.6001L26.4001 21.2V20H24.1906L23.733 18.8Z" fill="#0F70B8"/>
</svg>
