<svg width="185" height="32" viewBox="0 0 185 32" fill="none" xmlns="http://www.w3.org/2000/svg">
<g clip-path="url(#clip0_1_149)">
<path fill-rule="evenodd" clip-rule="evenodd" d="M46.82 10.9697C46.3042 11.8171 45.7474 12.6372 45.1516 13.4271L46.0644 14.4285C48.8176 17.402 54.3765 23.3105 54.3765 23.3105L54.4363 19.351C54.4363 19.351 50.5159 15.0217 46.82 10.9697Z" fill="#0F70B8"/>
<path fill-rule="evenodd" clip-rule="evenodd" d="M40.4532 4.09051C40.051 3.86267 39.5779 3.80731 39.1364 3.93644C38.5678 4.0674 36.4355 5.99326 36.4355 5.99326C36.4355 5.99326 26.4775 15.4531 26.0435 15.7227C25.8398 15.8543 25.6094 15.936 25.3702 15.9615C24.1507 16 22.3775 13.9047 21.6668 13.2037C18.7789 10.4227 16.2426 8.08859 13.437 5.21521C12.3821 4.15214 11.5441 3.62831 10.3845 4.35243C10.1675 4.46798 0 12.7183 0 12.7183V22.2552C0 22.2552 12.7188 12.6952 12.9582 12.5181C13.3029 12.1854 13.7448 11.9795 14.2151 11.9326C14.851 11.9326 15.472 12.6259 16.0705 13.1343C19.4522 16 26.0959 21.9008 26.283 22.0703C26.6345 22.4841 27.0961 22.7827 27.6107 22.9292C28.1253 23.0757 28.6703 23.0636 29.1783 22.8946C30.4427 22.5171 37.2959 14.9909 39.9594 12.1098C41.3435 10.623 41.9345 10.5691 42.7425 10.9466C42.99 11.1295 43.2182 11.3386 43.4234 11.5705C43.5356 11.3857 45.391 9.45209 45.4209 9.42128C42.8323 6.58642 40.6103 4.18295 40.4532 4.09051Z" fill="#0F70B8"/>
<path d="M54.2792 0C54.4214 0 54.4214 0.177179 54.2792 0.362061C54.1296 0.670197 34.019 29.635 33.1661 30.4978C32.2402 31.4217 31.0132 31.9573 29.7245 32C28.9158 31.9956 28.1295 31.7258 27.48 31.2297C23.7168 28.4333 14.7912 19.975 13.4669 19.351C13.1922 19.2448 12.8999 19.195 12.6065 19.2046C12.4137 19.207 12.2213 19.2225 12.0305 19.2508C10.6856 19.671 9.3848 20.2284 8.1475 20.9148C6.92051 21.5567 5.67357 22.1858 4.40668 22.8021C3.50889 23.2412 1.21951 24.2966 0.980099 24.4044C0.866729 24.456 0.744837 24.4847 0.620981 24.4892C0.471348 24.4892 0.396532 24.4044 0.688315 24.0963C0.980099 23.7882 3.5837 21.7853 3.5837 21.7853C3.5837 21.7853 9.50167 17.2711 12.427 14.9292C12.9367 14.3743 13.6203 14.0224 14.3572 13.9355H14.5293C15.0457 14.0226 15.528 14.2575 15.9209 14.6134C16.6691 15.222 27.0536 24.5277 28.2132 25.0438C28.5393 25.189 28.8904 25.265 29.2457 25.2672C29.8336 25.2551 30.4024 25.05 30.8692 24.6818C30.9365 24.6509 50.8227 3.46654 53.7405 0.377467C54.0024 0.100144 54.1745 0 54.2792 0ZM51.9 2.96582C51.8177 2.9273 51.3913 3.3741 51.3464 3.42032L46.0045 9.11314C31.1161 24.9822 31.1011 24.9976 31.0413 25.0361C30.5292 25.4385 29.9047 25.66 29.2606 25.6678C28.8567 25.6704 28.4567 25.5865 28.086 25.4213C27.2705 25.0592 22.6993 21.0688 18.0906 17.0169C16.8935 15.9461 15.9284 15.1141 15.7264 14.9523C15.3821 14.6377 14.9601 14.4271 14.5069 14.3438H14.3572C13.7705 14.4022 13.2236 14.6756 12.816 15.1141L12.614 15.2682C9.72612 17.5638 3.83808 22.0703 3.77823 22.1165L2.88791 22.7867C2.50635 23.0794 2.42405 23.1719 2.48391 23.2489C2.54376 23.326 2.76073 23.1565 2.96273 23.1026L4.27201 22.4863C5.52893 21.8623 6.77836 21.2306 8.01283 20.5989C9.26821 19.8873 10.5953 19.319 11.9706 18.9042C12.176 18.87 12.3836 18.852 12.5916 18.8503C12.9323 18.8382 13.2715 18.9013 13.5866 19.0351C14.2749 19.351 16.4297 21.246 19.8862 24.2966C22.6768 26.7771 25.8715 29.5734 27.6895 30.9523C28.2911 31.4045 29.0171 31.6474 29.7619 31.6456C30.9648 31.6029 32.1091 31.1003 32.9715 30.2359C33.6748 29.5426 46.3636 11.2701 51.6756 3.56668C51.6756 3.56668 52.0272 3.06596 51.8851 2.96582" fill="#0F70B8"/>
<path d="M66.1899 19.3202C66.0852 20.7915 65.9805 22.2706 65.8832 23.7419C65.7301 23.7138 65.5748 23.7009 65.4193 23.7034H64.529C64.3785 23.7007 64.2281 23.7136 64.0801 23.7419C64.4841 21.4771 64.8482 19.2252 65.1724 16.986C65.4867 14.752 65.7859 12.4795 66.0553 10.1762L66.4443 10.2455C66.5764 10.2539 66.7088 10.2539 66.8408 10.2455H67.2L67.604 10.1762C67.9481 10.9466 68.3521 11.7631 68.6888 12.5797C69.0255 13.3962 69.437 14.2128 69.8185 15.0217C70.2001 15.8305 70.5667 16.624 70.9557 17.402C71.3448 18.1801 71.7039 18.9427 72.0406 19.6129C72.7887 18.1415 73.5369 16.5932 74.3299 14.9908C75.123 13.3885 75.8263 11.7708 76.5071 10.1839C77.0442 10.3074 77.6011 10.3074 78.1381 10.1839C78.2653 11.3163 78.4 12.5335 78.5496 13.8353C78.6992 15.1372 78.8414 16.4083 78.9835 17.687C79.1257 18.9658 79.2603 20.0905 79.4025 21.169C79.5446 22.2475 79.6718 23.118 79.7841 23.7804C79.5356 23.7532 79.2858 23.7404 79.0359 23.7419H77.4797C77.2099 23.7394 76.9401 23.7522 76.6717 23.7804C76.6019 22.4246 76.4971 20.9559 76.3575 19.3741C76.2178 17.7923 76.0657 16.226 75.9011 14.675L73.6865 19.2585C72.9833 20.7607 72.2875 22.2629 71.5992 23.7804H71.4121H71.0754H70.8959C70.1776 22.2706 69.4893 20.7992 68.831 19.3202C68.1726 17.8411 67.4394 16.3467 66.7062 14.8368C66.4443 16.3467 66.2872 17.8411 66.1899 19.3202Z" fill="#0F70B8"/>
<path d="M88.0138 23.9961C87.2433 24.0025 86.4748 23.9146 85.7245 23.7342C85.0516 23.5747 84.4192 23.2702 83.869 22.8406C83.3401 22.4179 82.9169 21.8712 82.6346 21.246C82.3167 20.4962 82.1634 19.6835 82.1857 18.8657C82.1857 18.3341 82.1857 17.8642 82.1857 17.4482C82.1857 17.0323 82.1857 16.6779 82.1857 16.2927C82.1857 15.9076 82.1857 15.5994 82.1857 15.2682C82.1857 14.9369 82.1857 14.598 82.1857 14.2436C82.1857 13.1754 82.1857 12.3126 82.1857 11.6553C82.1857 10.9928 82.1857 10.4998 82.1333 10.1762L82.8814 10.2455H83.667H84.4152L85.1633 10.1762C85.0362 11.4473 84.9613 12.6413 84.9314 13.7352C84.9015 14.8291 84.9314 15.9538 84.9314 17.0862C84.941 18.078 85.0615 19.0654 85.2905 20.0289C85.41 20.6502 85.6659 21.2352 86.0387 21.739C86.3506 22.1173 86.7689 22.3864 87.2358 22.5094C87.7761 22.6497 88.3319 22.717 88.8892 22.7097C89.5408 22.7489 90.1834 22.5375 90.6923 22.1165C91.1482 21.6866 91.4885 21.1426 91.6798 20.5373C91.9173 19.8054 92.0558 19.0433 92.0913 18.2725C92.1437 17.4251 92.1661 16.5392 92.1661 15.6225C92.1661 14.7058 92.1661 13.8045 92.1287 12.9032C92.0913 12.0019 92.0689 11.0929 92.0165 10.1916L92.5327 10.2609H92.9966C93.1612 10.2609 93.3183 10.2609 93.4754 10.2609L93.9543 10.1916C93.9543 10.4766 93.9019 10.8695 93.8794 11.3548C93.857 11.8402 93.8271 12.4025 93.7971 13.0419C93.7672 13.6813 93.7523 14.3823 93.7298 15.1526C93.7074 15.923 93.7298 16.7395 93.7298 17.5946C93.7298 19.9056 93.251 21.531 92.2933 22.5248C91.715 23.0573 91.0371 23.4625 90.3012 23.7156C89.5653 23.9686 88.7869 24.0641 88.0138 23.9961Z" fill="#0F70B8"/>
<path d="M99.9246 17.5176V18.3264C99.9246 19.4203 99.9246 20.3909 99.962 21.246C99.9994 22.1011 100.029 22.9254 100.082 23.7419C99.8335 23.7109 99.5835 23.6981 99.3335 23.7034H97.6053C97.3678 23.6998 97.1303 23.7127 96.8945 23.7419C96.9469 22.9254 96.9843 22.0934 97.0142 21.246C97.0442 20.3986 97.0517 19.4203 97.0517 18.3264V15.6456C97.0517 14.5518 97.0516 13.5811 97.0142 12.7337C96.9768 11.8864 96.9469 11.0313 96.8945 10.1762L97.6053 10.2455C97.8597 10.2455 98.1514 10.2455 98.4732 10.2455C98.7949 10.2455 99.2213 10.2455 99.6478 10.1993C100.074 10.1531 100.635 10.1531 101.286 10.1531C101.773 10.1531 102.192 10.1531 102.536 10.1531C102.835 10.1701 103.132 10.2087 103.426 10.2687C103.65 10.3127 103.868 10.3825 104.077 10.4766C104.264 10.5595 104.442 10.6628 104.608 10.7848C105.011 11.0772 105.336 11.4685 105.554 11.9233C105.772 12.378 105.877 12.8817 105.858 13.3885C105.899 14.24 105.632 15.0769 105.109 15.7381C104.52 16.391 103.749 16.8403 102.902 17.0246C103.516 18.139 104.174 19.2534 104.877 20.3678C105.581 21.4823 106.284 22.5864 106.987 23.6803C106.701 23.6523 106.414 23.6394 106.127 23.6418H104.391C104.099 23.6394 103.807 23.6523 103.516 23.6803L100.082 17.4559L99.9246 17.5176ZM102.955 13.8662C102.972 13.3973 102.914 12.9287 102.783 12.4795C102.69 12.1728 102.507 11.9035 102.259 11.7092C101.984 11.5182 101.668 11.3992 101.339 11.3625C100.889 11.3058 100.437 11.2801 99.9844 11.2855C99.9844 13.0727 99.9246 14.8676 99.9246 16.6779H100.149H100.351C100.703 16.7034 101.057 16.6543 101.39 16.5337C101.724 16.4132 102.029 16.2237 102.289 15.9769C102.772 15.391 103.011 14.6325 102.955 13.8662Z" fill="#0F70B8"/>
<path d="M108.977 14.105C108.977 13.196 108.977 12.4333 108.977 11.7939C108.977 11.1545 108.932 10.6307 108.925 10.1608C109.209 10.2153 109.497 10.2462 109.785 10.2532C110.074 10.2458 110.362 10.2149 110.646 10.1608L114.783 14.8599C116.145 16.4006 117.541 17.9669 118.973 19.559V15.9384C118.973 15.2913 118.973 14.6596 118.973 14.0356C118.973 13.4116 118.973 12.8339 118.973 12.3024C118.973 11.7708 118.973 11.324 118.935 10.9466C118.898 10.5691 118.891 10.3072 118.868 10.1762C119.152 10.2303 119.44 10.2612 119.728 10.2687C120.02 10.2613 120.31 10.2304 120.596 10.1762C120.529 11.3702 120.477 12.4872 120.439 13.4194C120.402 14.3515 120.372 15.299 120.342 16.1541C120.312 17.0091 120.342 17.8565 120.297 18.6962C120.252 19.5359 120.297 20.4218 120.297 21.3693V23.7419C120.036 23.7133 119.774 23.7005 119.512 23.7034C119.262 23.6991 119.012 23.7119 118.763 23.7419C116.13 20.5835 113.334 17.4046 110.376 14.2051C110.376 14.5826 110.376 14.9754 110.376 15.3452C110.376 15.715 110.376 16.1155 110.376 16.5161V18.8272C110.376 19.5975 110.376 20.2908 110.376 20.8377C110.376 21.3847 110.376 21.8623 110.376 22.2398C110.376 22.6172 110.376 22.9408 110.376 23.1796C110.376 23.4184 110.376 23.6187 110.421 23.765C110.268 23.7369 110.113 23.724 109.957 23.7265H109.516C109.221 23.724 108.927 23.7368 108.633 23.765C108.688 23.3925 108.72 23.0169 108.73 22.6403C108.768 21.9933 108.813 21.2075 108.858 20.2754C108.903 19.3433 108.94 18.3418 108.97 17.2557C109 16.1695 108.977 15.1064 108.977 14.105Z" fill="#0F70B8"/>
<path d="M123.769 12.7337C123.769 11.8787 123.709 11.0313 123.656 10.1762L124.367 10.2455C124.621 10.2455 124.906 10.2455 125.227 10.2455C125.549 10.2455 125.833 10.2455 126.088 10.2455L126.799 10.1762C126.746 11.0313 126.709 11.8787 126.686 12.7337C126.664 13.5888 126.649 14.5518 126.649 15.6456V18.3264C126.649 19.4203 126.649 20.3909 126.686 21.246C126.724 22.1011 126.746 22.9254 126.799 23.7419C126.563 23.7127 126.325 23.6998 126.088 23.7034H124.367C124.13 23.6996 123.892 23.7125 123.656 23.7419C123.706 22.9254 123.744 22.0934 123.769 21.246C123.769 20.3909 123.769 19.4203 123.769 18.3264V15.6456C123.806 14.5518 123.798 13.5811 123.769 12.7337Z" fill="#0F70B8"/>
<path d="M135.417 15.6456C135.417 14.5518 135.417 13.5811 135.417 12.7337C135.417 11.8864 135.358 11.0313 135.305 10.1762L136.016 10.2455C136.27 10.2455 136.555 10.2455 136.876 10.2455C137.43 10.2455 138.006 10.2301 138.605 10.1993C139.203 10.1685 139.779 10.1531 140.333 10.1531C140.862 10.1451 141.389 10.2046 141.904 10.3303C142.341 10.4329 142.757 10.6155 143.131 10.8695C143.471 11.1086 143.745 11.4353 143.924 11.817C144.122 12.2531 144.219 12.7303 144.208 13.2114C144.223 13.7089 144.106 14.2013 143.872 14.6365C143.667 15.0049 143.398 15.3314 143.079 15.5994C142.771 15.8543 142.428 16.0595 142.061 16.208C141.741 16.3345 141.41 16.4325 141.074 16.5007V16.5392C141.424 16.5662 141.771 16.6361 142.106 16.7472C142.511 16.878 142.892 17.0757 143.236 17.3327C143.604 17.6037 143.915 17.9498 144.148 18.3495C144.413 18.8159 144.543 19.3505 144.523 19.8902C144.539 20.5181 144.411 21.1411 144.148 21.7082C143.914 22.1907 143.573 22.6101 143.153 22.9331C142.726 23.2516 142.24 23.477 141.724 23.5956C141.177 23.72 140.617 23.782 140.056 23.7805C139.54 23.7805 139.068 23.7805 138.627 23.7805H137.235H136.166C135.873 23.7743 135.581 23.7872 135.29 23.819C135.34 23.0024 135.378 22.1704 135.402 21.3231C135.402 20.468 135.402 19.4973 135.402 18.4035L135.417 15.6456ZM141.328 13.6119C141.328 13.3083 141.293 13.0057 141.223 12.7106C141.161 12.4424 141.041 12.1921 140.872 11.9788C140.695 11.7713 140.478 11.6034 140.236 11.4858C139.933 11.3527 139.606 11.2896 139.278 11.3009H138.694L138.335 11.3471C138.335 11.8402 138.29 12.3332 138.275 12.8339C138.26 13.3346 138.275 13.7506 138.275 14.0973C138.275 14.4439 138.275 14.7906 138.275 15.1141C138.275 15.4376 138.275 15.7689 138.275 16.1078H139.158C139.716 16.1086 140.252 15.8879 140.655 15.4916C140.866 15.2703 141.034 15.0086 141.148 14.7212C141.293 14.3706 141.364 13.9927 141.358 13.6119H141.328ZM141.463 19.9904C141.519 19.2483 141.303 18.5113 140.857 17.9259C140.63 17.6885 140.356 17.5044 140.054 17.386C139.752 17.2677 139.428 17.218 139.106 17.2402H138.642H138.275C138.275 17.5176 138.275 17.8026 138.275 18.103C138.275 18.4035 138.275 18.7501 138.275 19.1584C138.275 19.5667 138.275 19.7978 138.275 20.1213C138.275 20.4449 138.275 20.7761 138.275 21.092C138.275 21.4078 138.275 21.7005 138.275 21.9624C138.275 22.2244 138.275 22.4401 138.275 22.6095H138.777H139.33C139.609 22.6124 139.885 22.5519 140.138 22.4324C140.397 22.3133 140.625 22.1339 140.804 21.9085C141.011 21.6628 141.169 21.3774 141.268 21.0688C141.395 20.7365 141.471 20.3855 141.492 20.0289L141.463 19.9904Z" fill="#0F70B8"/>
<path d="M157.279 23.7419C156.972 23.7419 156.68 23.7034 156.403 23.7034H154.78C154.508 23.7005 154.235 23.7134 153.964 23.7419L153.328 21.7699C153.111 21.092 152.88 20.4218 152.64 19.7516H151.413H149.169H148.174C147.919 20.4218 147.68 21.092 147.463 21.7699C147.246 22.4478 147.044 23.0948 146.872 23.7419C146.721 23.7141 146.568 23.7012 146.415 23.7034H145.518C145.352 23.7022 145.187 23.7151 145.024 23.7419C145.173 23.3953 145.383 22.9254 145.637 22.3168C145.892 21.7082 146.176 21.0303 146.483 20.2677L147.47 17.8026C147.822 16.9321 148.174 16.0462 148.525 15.1526L149.558 12.5026C149.894 11.6322 150.209 10.8233 150.485 10.0761L150.852 10.1454C151.1 10.1885 151.353 10.1885 151.6 10.1454L151.959 10.0761L153.276 13.6659C153.74 14.9446 154.209 16.2003 154.683 17.4328C155.161 18.6654 155.618 19.8286 156.067 20.9379C156.516 22.0472 156.912 22.9793 157.279 23.7419ZM150.485 13.8662C150.156 14.6365 149.842 15.4068 149.55 16.1772C149.258 16.9475 148.967 17.7179 148.682 18.5421H152.199C151.914 17.7718 151.638 16.9475 151.361 16.1772C151.084 15.4068 150.8 14.675 150.485 13.8662Z" fill="#0F70B8"/>
<path d="M159.426 14.105C159.426 13.196 159.426 12.4333 159.389 11.7939C159.351 11.1545 159.344 10.6307 159.329 10.1608C159.615 10.215 159.905 10.2459 160.197 10.2532C160.485 10.2458 160.773 10.2149 161.057 10.1608L165.194 14.8599C166.556 16.4006 167.948 17.9413 169.384 19.559V15.9384C169.384 15.2913 169.384 14.6596 169.384 14.0356C169.384 13.4116 169.384 12.8339 169.384 12.3024C169.384 11.7708 169.384 11.324 169.347 10.9466C169.309 10.5691 169.302 10.3072 169.279 10.1762C169.563 10.2303 169.851 10.2612 170.14 10.2687C170.431 10.2613 170.721 10.2304 171.008 10.1762C170.94 11.3702 170.888 12.4872 170.85 13.4194C170.813 14.3515 170.783 15.299 170.753 16.1541C170.723 17.0091 170.716 17.8565 170.708 18.6962C170.701 19.5359 170.708 20.4218 170.708 21.3693V23.7419C170.445 23.7135 170.18 23.7007 169.915 23.7034C169.665 23.6989 169.415 23.7118 169.167 23.7419C166.524 20.5835 163.728 17.4046 160.78 14.2051C160.78 14.5826 160.78 14.9754 160.78 15.3452C160.78 15.715 160.78 16.1155 160.78 16.5161V18.8272C160.78 19.5975 160.78 20.2908 160.78 20.8377C160.78 21.3847 160.78 21.8623 160.78 22.2398C160.78 22.6172 160.78 22.9408 160.78 23.1796C160.78 23.4184 160.78 23.6187 160.818 23.765C160.667 23.7369 160.514 23.724 160.361 23.7265H159.92C159.625 23.724 159.33 23.7368 159.037 23.765C159.037 23.6572 159.097 23.2874 159.134 22.6403C159.172 21.9933 159.209 21.2075 159.254 20.2754C159.299 19.3433 159.344 18.3418 159.374 17.2557C159.404 16.1695 159.426 15.1064 159.426 14.105Z" fill="#0F70B8"/>
<path d="M176.866 21.2922C176.861 22.1109 176.906 22.929 177 23.7419C176.752 23.7109 176.502 23.6981 176.252 23.7034H174.524C174.286 23.6998 174.049 23.7127 173.813 23.7419C173.866 22.9254 173.903 22.0934 173.933 21.246C173.963 20.3986 173.97 19.4203 173.97 18.3264V15.6456C173.97 14.5518 173.97 13.5811 173.933 12.7337C173.895 11.8864 173.866 11.0313 173.813 10.1762L174.524 10.2455C174.778 10.2455 175.07 10.2455 175.384 10.2455C175.699 10.2455 175.998 10.2455 176.252 10.2455L177 10.1762C176.921 10.7633 176.878 11.3552 176.873 11.948C176.873 12.7183 176.873 13.6196 176.873 14.5749V16.4699C177.307 15.9461 177.778 15.3683 178.272 14.7443C178.766 14.1204 179.252 13.5118 179.716 12.9186C180.18 12.3255 180.591 11.7862 180.958 11.2855C181.325 10.7848 181.602 10.4227 181.766 10.1762L182.305 10.2455H182.843H183.39L183.988 10.1762C183.771 10.3996 183.442 10.7617 182.993 11.2624L181.564 12.8801C181.055 13.4579 180.577 14.0202 180.113 14.5672C179.649 15.1141 179.297 15.5455 179.043 15.8613L180.404 17.9952C180.906 18.7655 181.4 19.5359 181.901 20.3062C182.402 21.0766 182.851 21.7313 183.27 22.363C183.689 22.9947 184.018 23.4569 184.287 23.7727C183.913 23.7727 183.584 23.7342 183.285 23.7342H181.594C181.314 23.7319 181.035 23.7447 180.756 23.7727C180.105 22.7713 179.462 21.7545 178.841 20.6914C178.22 19.6283 177.569 18.6269 176.918 17.61C176.843 19.0351 176.851 20.2677 176.866 21.2922Z" fill="#0F70B8"/>
</g>
<defs>
<clipPath id="clip0_1_149">
<rect width="184.25" height="32" fill="white"/>
</clipPath>
</defs>
</svg>
