<svg width="32" height="32" viewBox="0 0 32 32" fill="none" xmlns="http://www.w3.org/2000/svg">
<path fill-rule="evenodd" clip-rule="evenodd" d="M28.8 16C28.8 23.0692 23.0693 28.8 16 28.8C8.93077 28.8 3.20001 23.0692 3.20001 16C3.20001 8.93075 8.93077 3.2 16 3.2C23.0693 3.2 28.8 8.93075 28.8 16ZM20 12C20 14.2091 18.2092 16 16 16C13.7909 16 12 14.2091 12 12C12 9.79086 13.7909 8 16 8C18.2092 8 20 9.79086 20 12ZM16 19.2C12.8661 19.2 10.083 20.7016 8.33087 23.0246C10.2322 25.0992 12.9642 26.4 16 26.4C19.0358 26.4 21.7679 25.0992 23.6692 23.0246C21.917 20.7016 19.1339 19.2 16 19.2Z" fill="#0F70B8"/>
</svg>
